<?xml version='1.0' encoding='UTF-8'?>
<svg width="53mm" height="53mm" version="1.1" viewBox="0 0 53 53" xmlns="http://www.w3.org/2000/svg"><path d="M4,4H5V5H4zM5,4H6V5H5zM6,4H7V5H6zM7,4H8V5H7zM8,4H9V5H8zM9,4H10V5H9zM10,4H11V5H10zM12,4H13V5H12zM13,4H14V5H13zM15,4H16V5H15zM16,4H17V5H16zM18,4H19V5H18zM20,4H21V5H20zM21,4H22V5H21zM23,4H24V5H23zM26,4H27V5H26zM27,4H28V5H27zM29,4H30V5H29zM33,4H34V5H33zM34,4H35V5H34zM37,4H38V5H37zM40,4H41V5H40zM42,4H43V5H42zM43,4H44V5H43zM44,4H45V5H44zM45,4H46V5H45zM46,4H47V5H46zM47,4H48V5H47zM48,4H49V5H48zM4,5H5V6H4zM10,5H11V6H10zM12,5H13V6H12zM17,5H18V6H17zM18,5H19V6H18zM19,5H20V6H19zM21,5H22V6H21zM23,5H24V6H23zM24,5H25V6H24zM26,5H27V6H26zM32,5H33V6H32zM33,5H34V6H33zM34,5H35V6H34zM37,5H38V6H37zM39,5H40V6H39zM42,5H43V6H42zM48,5H49V6H48zM4,6H5V7H4zM6,6H7V7H6zM7,6H8V7H7zM8,6H9V7H8zM10,6H11V7H10zM14,6H15V7H14zM18,6H19V7H18zM19,6H20V7H19zM21,6H22V7H21zM24,6H25V7H24zM25,6H26V7H25zM26,6H27V7H26zM29,6H30V7H29zM30,6H31V7H30zM31,6H32V7H31zM33,6H34V7H33zM34,6H35V7H34zM35,6H36V7H35zM36,6H37V7H36zM39,6H40V7H39zM42,6H43V7H42zM44,6H45V7H44zM45,6H46V7H45zM46,6H47V7H46zM48,6H49V7H48zM4,7H5V8H4zM6,7H7V8H6zM7,7H8V8H7zM8,7H9V8H8zM10,7H11V8H10zM12,7H13V8H12zM13,7H14V8H13zM16,7H17V8H16zM17,7H18V8H17zM21,7H22V8H21zM22,7H23V8H22zM24,7H25V8H24zM26,7H27V8H26zM27,7H28V8H27zM28,7H29V8H28zM31,7H32V8H31zM33,7H34V8H33zM35,7H36V8H35zM39,7H40V8H39zM40,7H41V8H40zM42,7H43V8H42zM44,7H45V8H44zM45,7H46V8H45zM46,7H47V8H46zM48,7H49V8H48zM4,8H5V9H4zM6,8H7V9H6zM7,8H8V9H7zM8,8H9V9H8zM10,8H11V9H10zM13,8H14V9H13zM14,8H15V9H14zM16,8H17V9H16zM21,8H22V9H21zM22,8H23V9H22zM23,8H24V9H23zM24,8H25V9H24zM25,8H26V9H25zM26,8H27V9H26zM27,8H28V9H27zM28,8H29V9H28zM29,8H30V9H29zM30,8H31V9H30zM31,8H32V9H31zM32,8H33V9H32zM37,8H38V9H37zM38,8H39V9H38zM39,8H40V9H39zM40,8H41V9H40zM42,8H43V9H42zM44,8H45V9H44zM45,8H46V9H45zM46,8H47V9H46zM48,8H49V9H48zM4,9H5V10H4zM10,9H11V10H10zM15,9H16V10H15zM16,9H17V10H16zM19,9H20V10H19zM20,9H21V10H20zM23,9H24V10H23zM24,9H25V10H24zM28,9H29V10H28zM30,9H31V10H30zM32,9H33V10H32zM33,9H34V10H33zM34,9H35V10H34zM35,9H36V10H35zM42,9H43V10H42zM48,9H49V10H48zM4,10H5V11H4zM5,10H6V11H5zM6,10H7V11H6zM7,10H8V11H7zM8,10H9V11H8zM9,10H10V11H9zM10,10H11V11H10zM12,10H13V11H12zM14,10H15V11H14zM16,10H17V11H16zM18,10H19V11H18zM20,10H21V11H20zM22,10H23V11H22zM24,10H25V11H24zM26,10H27V11H26zM28,10H29V11H28zM30,10H31V11H30zM32,10H33V11H32zM34,10H35V11H34zM36,10H37V11H36zM38,10H39V11H38zM40,10H41V11H40zM42,10H43V11H42zM43,10H44V11H43zM44,10H45V11H44zM45,10H46V11H45zM46,10H47V11H46zM47,10H48V11H47zM48,10H49V11H48zM12,11H13V12H12zM13,11H14V12H13zM14,11H15V12H14zM18,11H19V12H18zM19,11H20V12H19zM20,11H21V12H20zM24,11H25V12H24zM28,11H29V12H28zM29,11H30V12H29zM32,11H33V12H32zM34,11H35V12H34zM37,11H38V12H37zM39,11H40V12H39zM40,11H41V12H40zM4,12H5V13H4zM6,12H7V13H6zM7,12H8V13H7zM9,12H10V13H9zM10,12H11V13H10zM11,12H12V13H11zM16,12H17V13H16zM17,12H18V13H17zM23,12H24V13H23zM24,12H25V13H24zM25,12H26V13H25zM26,12H27V13H26zM27,12H28V13H27zM28,12H29V13H28zM29,12H30V13H29zM31,12H32V13H31zM32,12H33V13H32zM37,12H38V13H37zM40,12H41V13H40zM42,12H43V13H42zM45,12H46V13H45zM47,12H48V13H47zM48,12H49V13H48zM4,13H5V14H4zM5,13H6V14H5zM6,13H7V14H6zM9,13H10V14H9zM13,13H14V14H13zM15,13H16V14H15zM17,13H18V14H17zM18,13H19V14H18zM19,13H20V14H19zM21,13H22V14H21zM22,13H23V14H22zM23,13H24V14H23zM24,13H25V14H24zM26,13H27V14H26zM28,13H29V14H28zM29,13H30V14H29zM31,13H32V14H31zM33,13H34V14H33zM34,13H35V14H34zM40,13H41V14H40zM44,13H45V14H44zM45,13H46V14H45zM47,13H48V14H47zM48,13H49V14H48zM4,14H5V15H4zM6,14H7V15H6zM9,14H10V15H9zM10,14H11V15H10zM12,14H13V15H12zM14,14H15V15H14zM15,14H16V15H15zM16,14H17V15H16zM17,14H18V15H17zM18,14H19V15H18zM20,14H21V15H20zM22,14H23V15H22zM24,14H25V15H24zM25,14H26V15H25zM26,14H27V15H26zM28,14H29V15H28zM31,14H32V15H31zM33,14H34V15H33zM34,14H35V15H34zM36,14H37V15H36zM37,14H38V15H37zM38,14H39V15H38zM41,14H42V15H41zM46,14H47V15H46zM47,14H48V15H47zM48,14H49V15H48zM4,15H5V16H4zM5,15H6V16H5zM6,15H7V16H6zM7,15H8V16H7zM8,15H9V16H8zM9,15H10V16H9zM11,15H12V16H11zM13,15H14V16H13zM14,15H15V16H14zM16,15H17V16H16zM18,15H19V16H18zM24,15H25V16H24zM26,15H27V16H26zM28,15H29V16H28zM29,15H30V16H29zM34,15H35V16H34zM35,15H36V16H35zM36,15H37V16H36zM37,15H38V16H37zM42,15H43V16H42zM45,15H46V16H45zM47,15H48V16H47zM4,16H5V17H4zM5,16H6V17H5zM7,16H8V17H7zM9,16H10V17H9zM10,16H11V17H10zM12,16H13V17H12zM13,16H14V17H13zM14,16H15V17H14zM18,16H19V17H18zM21,16H22V17H21zM22,16H23V17H22zM24,16H25V17H24zM25,16H26V17H25zM26,16H27V17H26zM27,16H28V17H27zM34,16H35V17H34zM38,16H39V17H38zM42,16H43V17H42zM43,16H44V17H43zM48,16H49V17H48zM7,17H8V18H7zM8,17H9V18H8zM9,17H10V18H9zM11,17H12V18H11zM12,17H13V18H12zM14,17H15V18H14zM15,17H16V18H15zM16,17H17V18H16zM19,17H20V18H19zM20,17H21V18H20zM22,17H23V18H22zM23,17H24V18H23zM27,17H28V18H27zM28,17H29V18H28zM30,17H31V18H30zM32,17H33V18H32zM35,17H36V18H35zM37,17H38V18H37zM39,17H40V18H39zM41,17H42V18H41zM42,17H43V18H42zM43,17H44V18H43zM45,17H46V18H45zM46,17H47V18H46zM47,17H48V18H47zM5,18H6V19H5zM6,18H7V19H6zM10,18H11V19H10zM12,18H13V19H12zM13,18H14V19H13zM14,18H15V19H14zM16,18H17V19H16zM18,18H19V19H18zM19,18H20V19H19zM21,18H22V19H21zM23,18H24V19H23zM24,18H25V19H24zM25,18H26V19H25zM26,18H27V19H26zM27,18H28V19H27zM29,18H30V19H29zM30,18H31V19H30zM31,18H32V19H31zM34,18H35V19H34zM39,18H40V19H39zM41,18H42V19H41zM42,18H43V19H42zM44,18H45V19H44zM45,18H46V19H45zM46,18H47V19H46zM4,19H5V20H4zM6,19H7V20H6zM8,19H9V20H8zM9,19H10V20H9zM11,19H12V20H11zM13,19H14V20H13zM15,19H16V20H15zM16,19H17V20H16zM18,19H19V20H18zM19,19H20V20H19zM20,19H21V20H20zM21,19H22V20H21zM23,19H24V20H23zM25,19H26V20H25zM28,19H29V20H28zM31,19H32V20H31zM32,19H33V20H32zM33,19H34V20H33zM34,19H35V20H34zM36,19H37V20H36zM38,19H39V20H38zM39,19H40V20H39zM44,19H45V20H44zM46,19H47V20H46zM47,19H48V20H47zM7,20H8V21H7zM10,20H11V21H10zM13,20H14V21H13zM14,20H15V21H14zM15,20H16V21H15zM16,20H17V21H16zM17,20H18V21H17zM18,20H19V21H18zM25,20H26V21H25zM29,20H30V21H29zM31,20H32V21H31zM35,20H36V21H35zM36,20H37V21H36zM37,20H38V21H37zM40,20H41V21H40zM41,20H42V21H41zM43,20H44V21H43zM45,20H46V21H45zM46,20H47V21H46zM48,20H49V21H48zM5,21H6V22H5zM11,21H12V22H11zM13,21H14V22H13zM15,21H16V22H15zM16,21H17V22H16zM19,21H20V22H19zM22,21H23V22H22zM28,21H29V22H28zM33,21H34V22H33zM35,21H36V22H35zM37,21H38V22H37zM38,21H39V22H38zM39,21H40V22H39zM43,21H44V22H43zM44,21H45V22H44zM45,21H46V22H45zM47,21H48V22H47zM48,21H49V22H48zM6,22H7V23H6zM9,22H10V23H9zM10,22H11V23H10zM12,22H13V23H12zM13,22H14V23H13zM14,22H15V23H14zM17,22H18V23H17zM18,22H19V23H18zM21,22H22V23H21zM24,22H25V23H24zM27,22H28V23H27zM28,22H29V23H28zM30,22H31V23H30zM31,22H32V23H31zM35,22H36V23H35zM38,22H39V23H38zM39,22H40V23H39zM41,22H42V23H41zM42,22H43V23H42zM46,22H47V23H46zM47,22H48V23H47zM5,23H6V24H5zM6,23H7V24H6zM9,23H10V24H9zM11,23H12V24H11zM12,23H13V24H12zM13,23H14V24H13zM18,23H19V24H18zM20,23H21V24H20zM21,23H22V24H21zM24,23H25V24H24zM25,23H26V24H25zM29,23H30V24H29zM30,23H31V24H30zM31,23H32V24H31zM32,23H33V24H32zM35,23H36V24H35zM37,23H38V24H37zM40,23H41V24H40zM41,23H42V24H41zM44,23H45V24H44zM48,23H49V24H48zM4,24H5V25H4zM6,24H7V25H6zM7,24H8V25H7zM8,24H9V25H8zM9,24H10V25H9zM10,24H11V25H10zM11,24H12V25H11zM12,24H13V25H12zM17,24H18V25H17zM18,24H19V25H18zM19,24H20V25H19zM21,24H22V25H21zM24,24H25V25H24zM25,24H26V25H25zM26,24H27V25H26zM27,24H28V25H27zM28,24H29V25H28zM29,24H30V25H29zM32,24H33V25H32zM37,24H38V25H37zM40,24H41V25H40zM41,24H42V25H41zM42,24H43V25H42zM43,24H44V25H43zM44,24H45V25H44zM46,24H47V25H46zM48,24H49V25H48zM4,25H5V26H4zM6,25H7V26H6zM8,25H9V26H8zM12,25H13V26H12zM13,25H14V26H13zM14,25H15V26H14zM16,25H17V26H16zM18,25H19V26H18zM19,25H20V26H19zM20,25H21V26H20zM21,25H22V26H21zM24,25H25V26H24zM28,25H29V26H28zM29,25H30V26H29zM33,25H34V26H33zM34,25H35V26H34zM35,25H36V26H35zM36,25H37V26H36zM39,25H40V26H39zM40,25H41V26H40zM44,25H45V26H44zM45,25H46V26H45zM46,25H47V26H46zM48,25H49V26H48zM6,26H7V27H6zM7,26H8V27H7zM8,26H9V27H8zM10,26H11V27H10zM12,26H13V27H12zM13,26H14V27H13zM14,26H15V27H14zM17,26H18V27H17zM18,26H19V27H18zM22,26H23V27H22zM23,26H24V27H23zM24,26H25V27H24zM26,26H27V27H26zM28,26H29V27H28zM31,26H32V27H31zM32,26H33V27H32zM33,26H34V27H33zM34,26H35V27H34zM35,26H36V27H35zM38,26H39V27H38zM40,26H41V27H40zM42,26H43V27H42zM44,26H45V27H44zM45,26H46V27H45zM47,26H48V27H47zM48,26H49V27H48zM7,27H8V28H7zM8,27H9V28H8zM12,27H13V28H12zM13,27H14V28H13zM15,27H16V28H15zM16,27H17V28H16zM17,27H18V28H17zM19,27H20V28H19zM22,27H23V28H22zM23,27H24V28H23zM24,27H25V28H24zM28,27H29V28H28zM31,27H32V28H31zM33,27H34V28H33zM36,27H37V28H36zM37,27H38V28H37zM38,27H39V28H38zM40,27H41V28H40zM44,27H45V28H44zM45,27H46V28H45zM47,27H48V28H47zM4,28H5V29H4zM5,28H6V29H5zM6,28H7V29H6zM7,28H8V29H7zM8,28H9V29H8zM9,28H10V29H9zM10,28H11V29H10zM11,28H12V29H11zM12,28H13V29H12zM13,28H14V29H13zM14,28H15V29H14zM15,28H16V29H15zM20,28H21V29H20zM21,28H22V29H21zM24,28H25V29H24zM25,28H26V29H25zM26,28H27V29H26zM27,28H28V29H27zM28,28H29V29H28zM29,28H30V29H29zM33,28H34V29H33zM34,28H35V29H34zM35,28H36V29H35zM38,28H39V29H38zM39,28H40V29H39zM40,28H41V29H40zM41,28H42V29H41zM42,28H43V29H42zM43,28H44V29H43zM44,28H45V29H44zM45,28H46V29H45zM48,28H49V29H48zM5,29H6V30H5zM6,29H7V30H6zM11,29H12V30H11zM12,29H13V30H12zM14,29H15V30H14zM17,29H18V30H17zM21,29H22V30H21zM23,29H24V30H23zM25,29H26V30H25zM26,29H27V30H26zM27,29H28V30H27zM28,29H29V30H28zM29,29H30V30H29zM30,29H31V30H30zM33,29H34V30H33zM35,29H36V30H35zM36,29H37V30H36zM37,29H38V30H37zM39,29H40V30H39zM40,29H41V30H40zM41,29H42V30H41zM42,29H43V30H42zM46,29H47V30H46zM6,30H7V31H6zM7,30H8V31H7zM10,30H11V31H10zM14,30H15V31H14zM16,30H17V31H16zM18,30H19V31H18zM19,30H20V31H19zM22,30H23V31H22zM23,30H24V31H23zM24,30H25V31H24zM25,30H26V31H25zM26,30H27V31H26zM28,30H29V31H28zM29,30H30V31H29zM30,30H31V31H30zM31,30H32V31H31zM32,30H33V31H32zM34,30H35V31H34zM36,30H37V31H36zM37,30H38V31H37zM43,30H44V31H43zM45,30H46V31H45zM6,31H7V32H6zM7,31H8V32H7zM12,31H13V32H12zM14,31H15V32H14zM18,31H19V32H18zM21,31H22V32H21zM22,31H23V32H22zM24,31H25V32H24zM27,31H28V32H27zM28,31H29V32H28zM29,31H30V32H29zM30,31H31V32H30zM31,31H32V32H31zM32,31H33V32H32zM33,31H34V32H33zM36,31H37V32H36zM37,31H38V32H37zM39,31H40V32H39zM42,31H43V32H42zM43,31H44V32H43zM45,31H46V32H45zM46,31H47V32H46zM47,31H48V32H47zM48,31H49V32H48zM5,32H6V33H5zM6,32H7V33H6zM7,32H8V33H7zM9,32H10V33H9zM10,32H11V33H10zM11,32H12V33H11zM13,32H14V33H13zM15,32H16V33H15zM19,32H20V33H19zM20,32H21V33H20zM21,32H22V33H21zM25,32H26V33H25zM29,32H30V33H29zM30,32H31V33H30zM34,32H35V33H34zM35,32H36V33H35zM36,32H37V33H36zM38,32H39V33H38zM39,32H40V33H39zM40,32H41V33H40zM43,32H44V33H43zM44,32H45V33H44zM45,32H46V33H45zM46,32H47V33H46zM48,32H49V33H48zM4,33H5V34H4zM6,33H7V34H6zM9,33H10V34H9zM11,33H12V34H11zM14,33H15V34H14zM17,33H18V34H17zM18,33H19V34H18zM20,33H21V34H20zM23,33H24V34H23zM25,33H26V34H25zM32,33H33V34H32zM33,33H34V34H33zM36,33H37V34H36zM37,33H38V34H37zM38,33H39V34H38zM40,33H41V34H40zM41,33H42V34H41zM42,33H43V34H42zM43,33H44V34H43zM44,33H45V34H44zM45,33H46V34H45zM46,33H47V34H46zM47,33H48V34H47zM48,33H49V34H48zM5,34H6V35H5zM7,34H8V35H7zM8,34H9V35H8zM10,34H11V35H10zM11,34H12V35H11zM13,34H14V35H13zM14,34H15V35H14zM16,34H17V35H16zM17,34H18V35H17zM18,34H19V35H18zM19,34H20V35H19zM20,34H21V35H20zM21,34H22V35H21zM24,34H25V35H24zM26,34H27V35H26zM28,34H29V35H28zM30,34H31V35H30zM35,34H36V35H35zM36,34H37V35H36zM37,34H38V35H37zM38,34H39V35H38zM39,34H40V35H39zM40,34H41V35H40zM43,34H44V35H43zM45,34H46V35H45zM46,34H47V35H46zM47,34H48V35H47zM6,35H7V36H6zM7,35H8V36H7zM8,35H9V36H8zM11,35H12V36H11zM13,35H14V36H13zM14,35H15V36H14zM15,35H16V36H15zM17,35H18V36H17zM20,35H21V36H20zM21,35H22V36H21zM24,35H25V36H24zM25,35H26V36H25zM27,35H28V36H27zM31,35H32V36H31zM32,35H33V36H32zM34,35H35V36H34zM35,35H36V36H35zM40,35H41V36H40zM47,35H48V36H47zM48,35H49V36H48zM4,36H5V37H4zM5,36H6V37H5zM7,36H8V37H7zM10,36H11V37H10zM11,36H12V37H11zM13,36H14V37H13zM14,36H15V37H14zM15,36H16V37H15zM20,36H21V37H20zM23,36H24V37H23zM24,36H25V37H24zM25,36H26V37H25zM26,36H27V37H26zM30,36H31V37H30zM31,36H32V37H31zM32,36H33V37H32zM37,36H38V37H37zM40,36H41V37H40zM41,36H42V37H41zM45,36H46V37H45zM46,36H47V37H46zM5,37H6V38H5zM9,37H10V38H9zM11,37H12V38H11zM13,37H14V38H13zM17,37H18V38H17zM23,37H24V38H23zM24,37H25V38H24zM25,37H26V38H25zM26,37H27V38H26zM27,37H28V38H27zM31,37H32V38H31zM33,37H34V38H33zM34,37H35V38H34zM36,37H37V38H36zM39,37H40V38H39zM41,37H42V38H41zM42,37H43V38H42zM45,37H46V38H45zM46,37H47V38H46zM48,37H49V38H48zM8,38H9V39H8zM10,38H11V39H10zM11,38H12V39H11zM13,38H14V39H13zM15,38H16V39H15zM16,38H17V39H16zM17,38H18V39H17zM18,38H19V39H18zM19,38H20V39H19zM20,38H21V39H20zM21,38H22V39H21zM22,38H23V39H22zM25,38H26V39H25zM26,38H27V39H26zM28,38H29V39H28zM31,38H32V39H31zM33,38H34V39H33zM34,38H35V39H34zM35,38H36V39H35zM38,38H39V39H38zM41,38H42V39H41zM42,38H43V39H42zM43,38H44V39H43zM47,38H48V39H47zM48,38H49V39H48zM5,39H6V40H5zM6,39H7V40H6zM7,39H8V40H7zM8,39H9V40H8zM11,39H12V40H11zM13,39H14V40H13zM14,39H15V40H14zM18,39H19V40H18zM19,39H20V40H19zM20,39H21V40H20zM21,39H22V40H21zM22,39H23V40H22zM23,39H24V40H23zM24,39H25V40H24zM27,39H28V40H27zM30,39H31V40H30zM34,39H35V40H34zM35,39H36V40H35zM36,39H37V40H36zM39,39H40V40H39zM41,39H42V40H41zM42,39H43V40H42zM43,39H44V40H43zM4,40H5V41H4zM7,40H8V41H7zM8,40H9V41H8zM10,40H11V41H10zM13,40H14V41H13zM14,40H15V41H14zM15,40H16V41H15zM16,40H17V41H16zM20,40H21V41H20zM21,40H22V41H21zM24,40H25V41H24zM25,40H26V41H25zM26,40H27V41H26zM27,40H28V41H27zM28,40H29V41H28zM29,40H30V41H29zM31,40H32V41H31zM34,40H35V41H34zM35,40H36V41H35zM37,40H38V41H37zM40,40H41V41H40zM41,40H42V41H41zM42,40H43V41H42zM43,40H44V41H43zM44,40H45V41H44zM12,41H13V42H12zM13,41H14V42H13zM15,41H16V42H15zM21,41H22V42H21zM24,41H25V42H24zM28,41H29V42H28zM29,41H30V42H29zM30,41H31V42H30zM31,41H32V42H31zM37,41H38V42H37zM40,41H41V42H40zM44,41H45V42H44zM4,42H5V43H4zM5,42H6V43H5zM6,42H7V43H6zM7,42H8V43H7zM8,42H9V43H8zM9,42H10V43H9zM10,42H11V43H10zM12,42H13V43H12zM15,42H16V43H15zM17,42H18V43H17zM19,42H20V43H19zM20,42H21V43H20zM21,42H22V43H21zM24,42H25V43H24zM26,42H27V43H26zM28,42H29V43H28zM29,42H30V43H29zM30,42H31V43H30zM31,42H32V43H31zM32,42H33V43H32zM34,42H35V43H34zM35,42H36V43H35zM39,42H40V43H39zM40,42H41V43H40zM42,42H43V43H42zM44,42H45V43H44zM4,43H5V44H4zM10,43H11V44H10zM12,43H13V44H12zM14,43H15V44H14zM15,43H16V44H15zM21,43H22V44H21zM22,43H23V44H22zM23,43H24V44H23zM24,43H25V44H24zM28,43H29V44H28zM29,43H30V44H29zM30,43H31V44H30zM32,43H33V44H32zM33,43H34V44H33zM36,43H37V44H36zM39,43H40V44H39zM40,43H41V44H40zM44,43H45V44H44zM45,43H46V44H45zM46,43H47V44H46zM47,43H48V44H47zM48,43H49V44H48zM4,44H5V45H4zM6,44H7V45H6zM7,44H8V45H7zM8,44H9V45H8zM10,44H11V45H10zM16,44H17V45H16zM20,44H21V45H20zM24,44H25V45H24zM25,44H26V45H25zM26,44H27V45H26zM27,44H28V45H27zM28,44H29V45H28zM30,44H31V45H30zM31,44H32V45H31zM35,44H36V45H35zM36,44H37V45H36zM37,44H38V45H37zM38,44H39V45H38zM40,44H41V45H40zM41,44H42V45H41zM42,44H43V45H42zM43,44H44V45H43zM44,44H45V45H44zM46,44H47V45H46zM48,44H49V45H48zM4,45H5V46H4zM6,45H7V46H6zM7,45H8V46H7zM8,45H9V46H8zM10,45H11V46H10zM12,45H13V46H12zM13,45H14V46H13zM14,45H15V46H14zM15,45H16V46H15zM18,45H19V46H18zM21,45H22V46H21zM22,45H23V46H22zM23,45H24V46H23zM25,45H26V46H25zM27,45H28V46H27zM31,45H32V46H31zM32,45H33V46H32zM33,45H34V46H33zM38,45H39V46H38zM40,45H41V46H40zM45,45H46V46H45zM48,45H49V46H48zM4,46H5V47H4zM6,46H7V47H6zM7,46H8V47H7zM8,46H9V47H8zM10,46H11V47H10zM12,46H13V47H12zM14,46H15V47H14zM18,46H19V47H18zM19,46H20V47H19zM20,46H21V47H20zM21,46H22V47H21zM23,46H24V47H23zM25,46H26V47H25zM27,46H28V47H27zM30,46H31V47H30zM31,46H32V47H31zM32,46H33V47H32zM33,46H34V47H33zM36,46H37V47H36zM37,46H38V47H37zM38,46H39V47H38zM39,46H40V47H39zM40,46H41V47H40zM45,46H46V47H45zM46,46H47V47H46zM47,46H48V47H47zM4,47H5V48H4zM10,47H11V48H10zM13,47H14V48H13zM15,47H16V48H15zM16,47H17V48H16zM17,47H18V48H17zM18,47H19V48H18zM19,47H20V48H19zM27,47H28V48H27zM28,47H29V48H28zM29,47H30V48H29zM32,47H33V48H32zM34,47H35V48H34zM37,47H38V48H37zM38,47H39V48H38zM39,47H40V48H39zM40,47H41V48H40zM42,47H43V48H42zM48,47H49V48H48zM4,48H5V49H4zM5,48H6V49H5zM6,48H7V49H6zM7,48H8V49H7zM8,48H9V49H8zM9,48H10V49H9zM10,48H11V49H10zM12,48H13V49H12zM14,48H15V49H14zM15,48H16V49H15zM17,48H18V49H17zM18,48H19V49H18zM19,48H20V49H19zM20,48H21V49H20zM21,48H22V49H21zM22,48H23V49H22zM25,48H26V49H25zM27,48H28V49H27zM31,48H32V49H31zM32,48H33V49H32zM33,48H34V49H33zM34,48H35V49H34zM38,48H39V49H38zM39,48H40V49H39zM40,48H41V49H40zM41,48H42V49H41zM42,48H43V49H42zM43,48H44V49H43zM44,48H45V49H44zM45,48H46V49H45zM46,48H47V49H46z" id="qr-path" fill="#000000" fill-opacity="1" fill-rule="nonzero" stroke="none" /></svg>